<?xml version="1.0" encoding="UTF-8" standalone="no"?>
<!-- Created with Inkscape (http://www.inkscape.org/) -->

<svg
   xmlns:dc="http://purl.org/dc/elements/1.1/"
   xmlns:cc="http://creativecommons.org/ns#"
   xmlns:rdf="http://www.w3.org/1999/02/22-rdf-syntax-ns#"
   xmlns:svg="http://www.w3.org/2000/svg"
   xmlns="http://www.w3.org/2000/svg"
   xmlns:sodipodi="http://sodipodi.sourceforge.net/DTD/sodipodi-0.dtd"
   xmlns:inkscape="http://www.inkscape.org/namespaces/inkscape"
   width="28.222221mm"
   height="8.1675205mm"
   viewBox="0 0 99.999991 28.940033"
   id="svg4292"
   version="1.1"
   inkscape:version="0.91 r13725"
   sodipodi:docname="logo.svg">
  <defs
     id="defs4294" />
  <sodipodi:namedview
     id="base"
     pagecolor="#ffffff"
     bordercolor="#666666"
     borderopacity="1.0"
     inkscape:pageopacity="0.0"
     inkscape:pageshadow="2"
     inkscape:zoom="5.6"
     inkscape:cx="71.86786"
     inkscape:cy="22.742496"
     inkscape:document-units="px"
     inkscape:current-layer="layer1"
     showgrid="false"
     showguides="true"
     inkscape:guide-bbox="true"
     fit-margin-top="0"
     fit-margin-left="0"
     fit-margin-right="0"
     fit-margin-bottom="0"
     inkscape:window-width="1920"
     inkscape:window-height="1017"
     inkscape:window-x="-8"
     inkscape:window-y="-8"
     inkscape:window-maximized="1">
    <sodipodi:guide
       position="269.12375,139.5031"
       orientation="0,1"
       id="guide4885" />
    <sodipodi:guide
       position="360.55234,410.93166"
       orientation="0,1"
       id="guide4887" />
  </sodipodi:namedview>
  <metadata
     id="metadata4297">
    <rdf:RDF>
      <cc:Work
         rdf:about="">
        <dc:format>image/svg+xml</dc:format>
        <dc:type
           rdf:resource="http://purl.org/dc/dcmitype/StillImage" />
        <dc:title></dc:title>
      </cc:Work>
    </rdf:RDF>
  </metadata>
  <g
     inkscape:label="Layer 1"
     inkscape:groupmode="layer"
     id="layer1"
     transform="translate(1554.8381,-608.63953)">
    <g
       style="font-style:normal;font-weight:normal;font-size:394.06072998px;line-height:125%;font-family:sans-serif;text-align:center;letter-spacing:0px;word-spacing:0px;text-anchor:middle;fill:#ffffff;fill-opacity:1;stroke:none;stroke-width:1px;stroke-linecap:butt;stroke-linejoin:miter;stroke-opacity:1"
       id="text4265"
       transform="matrix(0.04740886,0,0,0.04740886,-1481.125,607.35264)">
      <path
         d="m -1373.9706,379.83207 -94.8594,0 0,80.04358 90.4339,0 2.5014,-33.47977 42.7155,0 0,76.58016 -221.6591,0 0,-33.67218 29.8239,-5.77237 0,-201.07103 -29.8239,-5.77237 0,-33.8646 29.8239,0 191.4504,0 0,76.77258 -43.1004,0 -2.5014,-33.47977 -89.6642,0 0,70.42296 94.8594,0 0,43.29281 z"
         style="font-style:normal;font-variant:normal;font-weight:bold;font-stretch:normal;font-family:'Roboto Slab';-inkscape-font-specification:'Roboto Slab Bold';text-align:center;letter-spacing:33.42976761px;text-anchor:middle;fill:#ffffff;fill-opacity:1"
         id="path4862"
         inkscape:connector-curvature="0" />
      <path
         d="m -712.55655,222.82349 0,74.65604 -43.10039,0 -2.30895,-31.36323 -51.56654,0 0,197.41519 30.01634,5.77237 0,33.67218 -116.21713,0 0,-33.67218 30.01635,-5.77237 0,-197.41519 -51.37413,0 -2.30895,31.36323 -42.90798,0 0,-74.65604 249.75138,0 z"
         style="font-style:normal;font-variant:normal;font-weight:bold;font-stretch:normal;font-family:'Roboto Slab';-inkscape-font-specification:'Roboto Slab Bold';text-align:center;letter-spacing:33.42976761px;text-anchor:middle;fill:#ffffff;fill-opacity:1"
         id="path4866"
         inkscape:connector-curvature="0" />
      <path
         d="m -535.20231,222.82349 q 47.71829,0 74.84845,21.93502 27.13016,21.74261 27.13016,60.22511 0,21.16537 -11.35234,36.75078 -11.35233,15.58541 -33.28736,25.20603 24.82121,7.31167 35.59631,24.43638 10.96751,16.9323 10.96751,42.13833 l 0,14.23853 q 0,9.23579 3.65584,14.43093 3.65583,5.00273 12.12198,5.96479 l 6.92685,0.96206 0,33.86459 -29.05428,0 q -27.51498,0 -38.67491,-14.81576 -11.15992,-14.81576 -11.15992,-38.29008 l 0,-15.97023 q 0,-20.39572 -10.96751,-31.94047 -10.7751,-11.73716 -30.59358,-12.3144 l -45.98658,0 0,73.88639 30.01634,5.77237 0,33.67218 -116.02471,0 0,-33.67218 29.82393,-5.77237 0,-201.07103 -29.82393,-5.77237 0,-33.8646 29.82393,0 96.01382,0 z m -39.82938,123.52881 38.86732,0 q 23.47432,0 35.21148,-10.00545 11.73716,-10.00545 11.73716,-28.86187 0,-18.85642 -11.73716,-30.01635 -11.54475,-11.35233 -34.24942,-11.35233 l -39.82938,0 0,80.236 z"
         style="font-style:normal;font-variant:normal;font-weight:bold;font-stretch:normal;font-family:'Roboto Slab';-inkscape-font-specification:'Roboto Slab Bold';text-align:center;letter-spacing:33.42976761px;text-anchor:middle;fill:#ffffff;fill-opacity:1"
         id="path4868"
         inkscape:connector-curvature="0" />
      <path
         d="m -175.82585,379.83207 -94.85934,0 0,80.04358 90.43385,0 2.50137,-33.47977 42.71556,0 0,76.58016 -221.65916,0 0,-33.67218 29.82394,-5.77237 0,-201.07103 -29.82394,-5.77237 0,-33.8646 29.82394,0 191.4504,0 0,76.77258 -43.10039,0 -2.50137,-33.47977 -89.6642,0 0,70.42296 94.85934,0 0,43.29281 z"
         style="font-style:normal;font-variant:normal;font-weight:bold;font-stretch:normal;font-family:'Roboto Slab';-inkscape-font-specification:'Roboto Slab Bold';text-align:center;letter-spacing:33.42976761px;text-anchor:middle;fill:#ffffff;fill-opacity:1"
         id="path4870"
         inkscape:connector-curvature="0" />
      <path
         d="m 198.75129,295.74782 -1.15447,-0.19241 -75.04086,207.42063 -37.712845,0 -74.656037,-206.65098 -1.1544745,0.19241 5.3875495,122.95156 0,44.06246 30.016344,5.77237 0,33.67218 -116.024717,0 0,-33.67218 29.823932,-5.77237 0,-201.07103 -29.823932,-5.77237 0,-33.8646 29.823932,0 73.30915,0 71.385028,206.45858 1.15447,0 71.96226,-206.45858 103.51791,0 0,33.8646 -30.01634,5.77237 0,201.07103 30.01634,5.77237 0,33.67218 -116.02472,0 0,-33.67218 29.82394,-5.77237 0,-44.06246 5.38754,-123.72121 z"
         style="font-style:normal;font-variant:normal;font-weight:bold;font-stretch:normal;font-family:'Roboto Slab';-inkscape-font-specification:'Roboto Slab Bold';text-align:center;letter-spacing:33.42976761px;text-anchor:middle;fill:#ffffff;fill-opacity:1"
         id="path4872"
         inkscape:connector-curvature="0" />
      <path
         d="m 513.6805,379.83207 -94.85935,0 0,80.04358 90.43386,0 2.50136,-33.47977 42.71557,0 0,76.58016 -221.65916,0 0,-33.67218 29.82393,-5.77237 0,-201.07103 -29.82393,-5.77237 0,-33.8646 29.82393,0 191.45041,0 0,76.77258 -43.1004,0 -2.50136,-33.47977 -89.66421,0 0,70.42296 94.85935,0 0,43.29281 z"
         style="font-style:normal;font-variant:normal;font-weight:bold;font-stretch:normal;font-family:'Roboto Slab';-inkscape-font-specification:'Roboto Slab Bold';text-align:center;letter-spacing:33.42976761px;text-anchor:middle;fill:#ffffff;fill-opacity:1"
         id="path4874"
         inkscape:connector-curvature="0" />
    </g>
    <path
       style="fill:#dd0a30;fill-opacity:1;fill-rule:evenodd;stroke:none;stroke-width:2.78124976px;stroke-linecap:butt;stroke-linejoin:miter;stroke-opacity:1"
       d="m -1550.9929,616.9385 c 0.9214,0.51422 2.3792,0.58722 2.7284,1.57224 l -0.4624,0.36996 c 0.818,0.20326 2.217,0.38704 2.5302,0.87068 -0.034,0.38428 -0.4587,0.31274 -0.7267,0.42412 3.0501,1.0409 6.1845,3.533 8.2775,5.13296 -0.122,0.32836 -0.339,-0.0736 -0.7954,-0.24666 -0.879,0.0754 -0.5601,0.47488 -0.7754,0.70644 2.1257,0.018 -1.086,1.50312 -1.1137,2.60248 -1.7846,-0.1076 -1.9555,1.21544 -2.4575,2.258 -3.6491,2.04324 -5.28,5.76736 -1.0158,1.8441 -2.4616,3.73034 -2.5973,5.53638 -0.5987,2.54336 0.9171,-1.94872 2.2051,-2.62636 3.4101,-3.58882 l 0.2013,0.45602 c -4.2204,4.07268 -0.583,2.62196 -0.578,2.667 l -0.99,1.40706 c -2.9667,3.25396 -0.2387,0.77658 1.9386,-0.24432 -0.573,2.29044 3.7271,-2.25184 6.0115,-3.74568 0.3236,-0.35454 0.5536,-1.55176 0.971,-1.06358 l 0.4162,-0.69364 c 0.02,-0.4221 0.5668,-0.70532 1.0207,-0.51712 0.6723,0.62462 0.9883,1.45794 1.8926,1.81192 0.14,0.37654 -0.18,0.69194 0.5395,1.1458 0.5009,-0.018 0.7886,0.5486 1.1252,0.98136 0,-0.28876 -0.424,-0.77584 0.074,-0.83236 0.3398,0.1644 0.655,0.47646 0.908,1.16166 0.15,-0.2072 -0.064,-0.74258 0.4794,-0.596 0.4818,1.1846 1.5814,1.4185 2.1458,2.6251 0.434,-0.59898 -0.07,-1.11008 -0.6012,-1.6185 0.8316,-0.53136 1.4266,0.8936 1.3296,1.4104 -0.184,0.65422 1.3174,0.20402 0.058,-1.96534 l -0.6939,-1.1098 0.8786,0.41618 c -0.3221,-0.84926 -1.1097,-1.23314 -1.6646,-1.84972 -0.176,-0.38788 -0.184,-1.1098 0.7052,-0.28904 0.9664,1.09134 1.757,1.44282 1.815,3.16766 -0.2757,1.3894 0.6907,0.49678 0.4393,-0.24278 0.184,0.0924 1.3064,1.19076 1.3064,1.19076 0.9637,1.1326 0.373,0.1304 -0.659,-1.74566 -0.359,-0.47938 -0.4557,-0.87124 -0.6474,-1.2948 0.4484,0.0866 1.1614,1.10404 1.5724,0.76296 -1.7503,-2.42292 -1.0637,-3.9159 -4.2544,-5.84968 -0.267,-0.632 -0.5033,-1.34694 -1.2486,-0.69366 0.4393,-0.77812 -0.8073,-1.42138 -1.8497,-2.08094 0,0 2.867,-3.56067 2.9133,-4.1503 -0.116,-0.57802 1.214,-1.42198 1.214,-1.42198 -0.2499,-0.6236 0.7741,-1.64222 1.3294,-2.289 l 1.2947,-1.34104 -0.184,-1.1561 c 0.2044,0.54945 0.5579,0.6149 0.8786,0.78614 -0.764,-1.02383 0,-1.05673 -0.15,-1.63007 -1.4256,-0.1702 -1.5762,-1.06357 -1.8727,-1.49136 -0.5729,0.52719 -1.1576,1.05029 -2.0926,1.4567 0.226,-0.37324 0.2561,-0.76426 0.7861,-1.10984 0.082,-0.78247 0.6535,-1.40552 1.0636,-2.08093 -0.4171,-0.36874 -0.7487,0.46087 -1.1097,0.87861 -0.2947,-0.0702 -0.5187,-0.1786 -0.4163,-0.46244 0.2919,-0.20037 0.4326,-0.40077 0.4163,-0.60114 0.3223,-0.54156 -1.498,-1.36687 -1.7227,-0.69366 -0.022,1.08556 -0.3562,1.59059 -0.7746,1.94219 -1.4346,0.092 -1.8031,1.43847 -2.2196,2.72835 -1.1985,1.06742 -1.4801,2.32111 -2.9595,4.62431 -0.2723,1.00334 -1.085,0.99154 -1.341,1.89596 -2.0706,-1.33028 -4.241,-3.69218 -5.5493,-3.93066 0.3427,-0.75428 -0.9142,-0.4881 -1.2023,-1.10984 -1.3103,-0.43122 -3.107,-1.63721 -3.6533,-2.95952 l -1.341,-1.10985 c -2.0212,-1.10644 -1.4181,0.1986 -0.2544,0.6474 0.6153,0.23715 2.699,2.53406 2.0003,2.64739 -0.7366,-0.38534 -2.2625,-2.29464 -1.5146,-0.6127 -1.5939,-1.20597 -3.0751,-2.74857 -3.1909,-0.71679 -0.9096,-0.014 -1.1932,-0.79478 -1.4335,-1.29475 -0.02,0.67381 -0.472,1.38454 -0.6935,1.36414 0.2984,0.23556 0.7452,0.38216 0.763,0.78613 -1.1546,0.61658 -1.1295,1.48747 -1.5725,2.10405 0.4793,-0.28556 0.899,-0.2147 1.318,-0.1388 0.2673,0.49074 -0.196,0.799 -0.37,1.17922 z"
       id="path4290"
       inkscape:connector-curvature="0"
       sodipodi:nodetypes="cccccccccccccccccccccccccccccccccccccccccccccccccccccccccccccccccccsccccccccc" />
  </g>
</svg>
